{"title":"General.Hospital.S54E109.HDTV.x264-TheRealTTL","uid":15778768,"size":326836082,"categoryP":"video","categoryS":"tv_shows","magnet":"?xt=urn:btih:96c31b86ac8c25e6c167caacc9e4b2cc0285fc68&amp;dn=General.Hospital.S54E109.HDTV.x264-TheRealTTL&amp;tr=udp%3A%2F%2Ftracker.leechers-paradise.org%3A6969&amp;tr=udp%3A%2F%2Fzer0day.ch%3A1337&amp;tr=udp%3A%2F%2Fopen.demonii.com%3A1337&amp;tr=udp%3A%2F%2Ftracker.coppersurfer.tk%3A6969&amp;tr=udp%3A%2F%2Fexodus.desync.com%3A6969","seeders":1,"leechers":0,"uploader":"thetorrentlord","files":3,"time":1473267129,"description":"General.Hospital.S54E109.HDTV.x264-TheRealTTL.mp4\r\nFormat                           : MPEG-4\r\nFormat profile                   : Base Media / Version 2\r\nCodec ID                         : mp42\r\nFile size                        : 304 MiB\r\nDuration                         : 36mn 9s\r\nOverall bit rate mode            : Variable\r\nOverall bit rate                 : 1 174 Kbps\r\nEncoded date                     : UTC 2036-02-06 06:28:16\r\nTagged date                      : UTC 2036-02-06 06:28:16\r\nWriting application              : HandBrake 0.10.2 2015060900\r\n\r\nVideo\r\nID                               : 1\r\nFormat                           : AVC\r\nFormat/Info                      : Advanced Video Codec\r\nFormat profile                   :   \r\nFormat settings, CABAC           : Yes\r\nFormat settings, ReFrames        : 4 frames\r\nCodec ID                         : avc1\r\nCodec ID/Info                    : Advanced Video Coding\r\nDuration                         : 36mn 9s\r\nBit rate                         : 1 039 Kbps\r\nWidth                            : 720 pixels\r\nHeight                           : 406 pixels\r\nDisplay aspect ratio             : 16:9\r\nFrame rate mode                  : Constant\r\nFrame rate                       : 29.970 fps\r\nColor space                      : YUV\r\nChroma subsampling               : 4:2:0\r\nBit depth                        : 8 bits\r\nScan type                        : Progressive\r\nBits/(Pixel*Frame)               : 0.119\r\nStream size                      : 269 MiB (88%)\r\nWriting library                  : x264 core 142 r2479 dd79a61\r\n\r\n\r\nAudio                            : English\r\nID                               : 2\r\nFormat                           : AAC\r\nFormat/Info                      : Advanced Audio Codec\r\nFormat profile                   : LC\r\nCodec ID                         : 40\r\nDuration                         : 36mn 9s\r\nBit rate mode                    : Variable\r\nBit rate                         : 128 Kbps\r\nChannel(s)                       : 2 channels\r\nChannel positions                : Front: L R\r\nSampling rate                    : 48.0 KHz\r\nCompression mode                 : Lossy\r\nStream size                      : 33.1 MiB (11%)\r\nTitle                            : Stereo\r\nEncoded date                     : UTC 2036-02-06 06:28:16\r\nTagged date                      : UTC 2036-02-06 06:28:16","torrent":{"xt":"urn:btih:96c31b86ac8c25e6c167caacc9e4b2cc0285fc68","amp;dn":"General.Hospital.S54E109.HDTV.x264-TheRealTTL","amp;tr":["udp%3A%2F%2Ftracker.leechers-paradise.org%3A6969","udp%3A%2F%2Fzer0day.ch%3A1337","udp%3A%2F%2Fopen.demonii.com%3A1337","udp%3A%2F%2Ftracker.coppersurfer.tk%3A6969","udp%3A%2F%2Fexodus.desync.com%3A6969"],"infoHash":"96c31b86ac8c25e6c167caacc9e4b2cc0285fc68","infoHashBuffer":{"type":"Buffer","data":[150,195,27,134,172,140,37,230,193,103,202,172,201,228,178,204,2,133,252,104]},"announce":[],"urlList":[]}}